<?xml version="1.0" standalone="no"?><!DOCTYPE svg PUBLIC "-//W3C//DTD SVG 1.1//EN" "http://www.w3.org/Graphics/SVG/1.1/DTD/svg11.dtd"><svg t="1654362030989" class="icon" viewBox="0 0 1024 1024" version="1.1" xmlns="http://www.w3.org/2000/svg" p-id="5509" xmlns:xlink="http://www.w3.org/1999/xlink" width="128" height="128"><defs><style type="text/css">@font-face { font-family: feedback-iconfont; src: url("//at.alicdn.com/t/font_1031158_u69w8yhxdu.woff2?t=1630033759944") format("woff2"), url("//at.alicdn.com/t/font_1031158_u69w8yhxdu.woff?t=1630033759944") format("woff"), url("//at.alicdn.com/t/font_1031158_u69w8yhxdu.ttf?t=1630033759944") format("truetype"); }
</style></defs><path d="M700.8 522.6c38.1-43.9 61.2-101.2 61.2-163.9 0-138.1-111.9-250-250-250s-250 111.9-250 250c0 62.7 23.1 120 61.2 163.9C197.5 590 112 722.7 112 875.3c0 22.1 17.9 40 40 40s40-17.9 40-40c0-43.2 8.4-85.1 25.1-124.5 16.1-38.1 39.2-72.3 68.6-101.7s63.6-52.5 101.7-68.6l5.1-2.1c35.5 19.3 76.2 30.3 119.4 30.3s83.9-11 119.4-30.3l5.1 2.1c38.1 16.1 72.3 39.2 101.7 68.6s52.5 63.6 68.6 101.7c16.7 39.4 25.1 81.3 25.1 124.5 0 22.1 17.9 40 40 40s40-17.9 40-40c0.2-152.6-85.3-285.3-211-352.7z m-65.7-46.7c-1.9 2-3.8 3.9-5.8 5.8-0.9 0.9-1.8 1.7-2.7 2.5-0.1 0.1-0.2 0.1-0.2 0.2-2.1 1.9-4.2 3.8-6.4 5.5-29.4 24.1-66.9 38.6-107.9 38.6s-78.5-14.5-107.9-38.6c-2.2-1.8-4.3-3.6-6.4-5.5l-0.1-0.1c-1-0.9-1.9-1.8-2.9-2.7-2-1.9-3.9-3.8-5.8-5.8-0.9-1-1.8-1.9-2.7-2.9l-0.1-0.1c-25.5-28.1-40.7-63.3-43.6-100.9v-0.3c-0.1-1.2-0.2-2.4-0.2-3.6v-0.7c-0.1-1.1-0.1-2.3-0.1-3.4v-0.9c0-1.4-0.1-2.9-0.1-4.3s0-2.9 0.1-4.3v-0.9c0-1.1 0.1-2.3 0.1-3.4v-0.7c0.1-1.2 0.1-2.4 0.2-3.6v-0.3c2.9-37.7 18.1-72.9 43.6-100.9l0.1-0.1c0.9-1 1.8-1.9 2.7-2.9 1.9-2 3.8-3.9 5.8-5.8 1-0.9 1.9-1.8 2.9-2.7l0.1-0.1c28-25.5 63.2-40.7 100.9-43.6h0.3c1.2-0.1 2.4-0.2 3.6-0.2h0.7c1.1-0.1 2.3-0.1 3.4-0.1h0.9c1.4 0 2.9-0.1 4.3-0.1s2.9 0 4.3 0.1h0.9c1.1 0 2.3 0.1 3.4 0.1h0.7c1.2 0.1 2.4 0.1 3.6 0.2h0.3c37.7 2.9 72.9 18.1 100.9 43.6l0.1 0.1c1 0.9 1.9 1.8 2.9 2.7 2 1.9 3.9 3.8 5.8 5.8 0.9 1 1.8 1.9 2.7 2.9l0.1 0.1c25.5 28 40.7 63.2 43.6 100.9v0.3c0.1 1.2 0.2 2.4 0.2 3.6v0.7c0.1 1.1 0.1 2.3 0.1 3.4v0.9c0 1.4 0.1 2.9 0.1 4.3s0 2.9-0.1 4.3v0.9c0 1.1-0.1 2.3-0.1 3.4v0.7c-0.1 1.2-0.1 2.4-0.2 3.6v0.3c-2.9 37.7-18.1 72.9-43.6 100.9l-0.1 0.1c-0.6 1.1-1.5 2.1-2.4 3z" fill="#E85F5C" p-id="5510" data-spm-anchor-id="a313x.7781069.0.i13" class=""></path><path d="M506.8 301.5c38 6.7 63.5 43.1 56.8 81.1l78.8 13.9c14.4-81.6-40.1-159.4-121.7-173.8l-13.9 78.8z" fill="#E85F5C" p-id="5511" data-spm-anchor-id="a313x.7781069.0.i14" class=""></path><path d="M603 389.6m-40 0a40 40 0 1 0 80 0 40 40 0 1 0-80 0Z" fill="#E85F5C" p-id="5512" data-spm-anchor-id="a313x.7781069.0.i15" class=""></path><path d="M513.7 262.1m-40 0a40 40 0 1 0 80 0 40 40 0 1 0-80 0Z" fill="#E85F5C" p-id="5513" data-spm-anchor-id="a313x.7781069.0.i16" class=""></path></svg>