<?xml version="1.0" standalone="no"?><!DOCTYPE svg PUBLIC "-//W3C//DTD SVG 1.1//EN" "http://www.w3.org/Graphics/SVG/1.1/DTD/svg11.dtd"><svg t="1653729474804" class="icon" viewBox="0 0 1024 1024" version="1.1" xmlns="http://www.w3.org/2000/svg" p-id="6060" xmlns:xlink="http://www.w3.org/1999/xlink" width="200" height="200"><defs><style type="text/css">@font-face { font-family: feedback-iconfont; src: url("//at.alicdn.com/t/font_1031158_u69w8yhxdu.woff2?t=1630033759944") format("woff2"), url("//at.alicdn.com/t/font_1031158_u69w8yhxdu.woff?t=1630033759944") format("woff"), url("//at.alicdn.com/t/font_1031158_u69w8yhxdu.ttf?t=1630033759944") format("truetype"); }
</style></defs><path d="M945.3568 524.3136c0-103.5008-39.9616-197.5808-104.832-268.544 10.9568-19.0976 17.7152-40.96 17.7152-64.5632 0-72.0896-58.4448-130.5088-130.5344-130.5088-50.432 0-93.6704 28.9024-115.4048 70.7584-21.4272-3.584-43.2896-5.888-65.7152-5.888-212.0192 0-385.408 166.4512-397.568 375.4752-55.2192 15.232-95.9744 65.28-95.9744 125.312 0 72.0896 58.4448 130.5344 130.5344 130.5344 12.4416 0 24.2432-2.304 35.6352-5.5552 72.0896 103.6288 191.872 171.7248 327.3984 171.7248 38.4 0 75.4432-5.76 110.6176-15.9488 23.5776 33.8688 62.6944 56.1664 107.0848 56.1664 72.0896 0 130.5344-58.4448 130.5344-130.5344 0-28.4672-9.3696-54.6048-24.832-76.0832C917.2224 691.1744 945.3568 611.072 945.3568 524.3136zM837.9392 725.0688c-20.9664-14.3616-46.2848-22.8352-73.6256-22.8352-72.0896 0-130.5344 58.4448-130.5344 130.5344 0 11.52 1.9712 22.4768 4.7616 33.1008-29.3888 7.9104-60.1088 12.544-91.9552 12.544-117.7856 0-222.0288-58.0352-286.4384-146.7904 32.5632-23.7312 53.9392-61.8752 53.9392-105.2672 0-68.5312-53.0176-124.1344-120.192-129.4848C208 314.4448 360.6272 170.24 546.6112 170.24c17.792 0 35.1488 1.7408 52.2752 4.3008-0.7168 5.5296-1.6896 10.9568-1.6896 16.6656 0 72.0896 58.4448 130.5344 130.5344 130.5344 32.1792 0 61.2352-12.0832 83.9936-31.36 55.1936 62.464 88.9856 144.2304 88.9856 233.9328C900.6848 598.8352 877.4144 667.9552 837.9392 725.0688z" p-id="6061" fill="#E85F5C"></path><path d="M416.0768 393.1392l261.0688 0 0 261.0688-261.0688 0 0-261.0688Z" p-id="6062" fill="#E85F5C"></path></svg>