<?xml version="1.0" standalone="no"?><!DOCTYPE svg PUBLIC "-//W3C//DTD SVG 1.1//EN" "http://www.w3.org/Graphics/SVG/1.1/DTD/svg11.dtd"><svg t="1653729853653" class="icon" viewBox="0 0 1024 1024" version="1.1" xmlns="http://www.w3.org/2000/svg" p-id="7521" xmlns:xlink="http://www.w3.org/1999/xlink" width="200" height="200"><defs><style type="text/css">@font-face { font-family: feedback-iconfont; src: url("//at.alicdn.com/t/font_1031158_u69w8yhxdu.woff2?t=1630033759944") format("woff2"), url("//at.alicdn.com/t/font_1031158_u69w8yhxdu.woff?t=1630033759944") format("woff"), url("//at.alicdn.com/t/font_1031158_u69w8yhxdu.ttf?t=1630033759944") format("truetype"); }
</style></defs><path d="M886.51776 799.66208l-139.93984-139.93984c-10.50624-10.50624-23.90016-16.13824-37.60128-17.44896 42.16832-52.59264 67.54304-119.1936 67.54304-191.6928 0-169.39008-137.80992-307.2-307.2-307.2s-307.2 137.80992-307.2 307.2 137.80992 307.2 307.2 307.2c63.91808 0 123.31008-19.6608 172.52352-53.18656 0.34816 15.23712 6.22592 30.37184 17.85856 42.00448l139.93984 139.93984c11.9808 12.00128 27.72992 18.00192 43.43808 18.00192s31.45728-6.00064 43.43808-18.00192C910.52032 862.55616 910.52032 823.66464 886.51776 799.66208zM469.31968 655.38048c-112.92672 0-204.8-91.87328-204.8-204.8s91.87328-204.8 204.8-204.8 204.8 91.87328 204.8 204.8S582.2464 655.38048 469.31968 655.38048z" p-id="7522" fill="#E85F5C"></path></svg>