<?xml version="1.0" standalone="no"?><!DOCTYPE svg PUBLIC "-//W3C//DTD SVG 1.1//EN" "http://www.w3.org/Graphics/SVG/1.1/DTD/svg11.dtd"><svg t="1653753157380" class="icon" viewBox="0 0 1024 1024" version="1.1" xmlns="http://www.w3.org/2000/svg" p-id="11345" xmlns:xlink="http://www.w3.org/1999/xlink" width="200" height="200"><defs><style type="text/css">@font-face { font-family: feedback-iconfont; src: url("//at.alicdn.com/t/font_1031158_u69w8yhxdu.woff2?t=1630033759944") format("woff2"), url("//at.alicdn.com/t/font_1031158_u69w8yhxdu.woff?t=1630033759944") format("woff"), url("//at.alicdn.com/t/font_1031158_u69w8yhxdu.ttf?t=1630033759944") format("truetype"); }
</style></defs><path d="M885.76 161.6A1280 1280 0 0 1 512 216a1284.16 1284.16 0 0 1-373.76-54.4L96 147.2v729.28L138.24 864a1312 1312 0 0 1 747.52 0l42.24 14.08V147.2zM864 789.44a1386.24 1386.24 0 0 0-704 0V234.88a1398.4 1398.4 0 0 0 352 45.12 1398.4 1398.4 0 0 0 352-45.12z" p-id="11346" fill="#2c2c2c"></path><path d="M341.44 520.64a58.88 58.88 0 0 0 22.72-20.48 52.48 52.48 0 0 0 8.64-29.12 60.16 60.16 0 0 0-19.2-47.68 76.48 76.48 0 0 0-51.84-16.64 70.4 70.4 0 0 0-48.32 17.28 52.8 52.8 0 0 0-18.88 43.84h43.52A29.12 29.12 0 0 1 284.8 448a21.76 21.76 0 0 1 16.96-7.68 24 24 0 0 1 19.52 8.64 35.52 35.52 0 0 1 7.04 21.76 38.08 38.08 0 0 1-6.72 24 24 24 0 0 1-20.16 8.64H278.4v32h23.04a28.8 28.8 0 0 1 22.4 8.64 40 40 0 0 1 7.68 27.2 34.24 34.24 0 0 1-8.32 23.36 28.16 28.16 0 0 1-21.76 9.28 23.36 23.36 0 0 1-18.88-8.96A34.88 34.88 0 0 1 275.2 576H232a56.32 56.32 0 0 0 20.48 48 76.48 76.48 0 0 0 48.96 16 79.04 79.04 0 0 0 53.44-17.6 61.44 61.44 0 0 0 20.8-48.96 59.52 59.52 0 0 0-8.96-32 54.72 54.72 0 0 0-25.28-20.8zM454.72 457.28a32 32 0 0 1 28.16-15.36 72.32 72.32 0 0 1 17.6 1.92 107.2 107.2 0 0 1 16.64 5.12l7.68-32a108.48 108.48 0 0 0-20.16-7.04 96 96 0 0 0-22.08-2.56 77.76 77.76 0 0 0-59.52 25.6 98.88 98.88 0 0 0-23.36 68.8v48.64a101.12 101.12 0 0 0 20.48 66.24 66.56 66.56 0 0 0 53.12 24 64 64 0 0 0 50.56-21.12 78.4 78.4 0 0 0 20.16-55.04 96 96 0 0 0-14.4-54.72 47.68 47.68 0 0 0-40.96-20.8 62.08 62.08 0 0 0-24.96 4.8 57.92 57.92 0 0 0-19.2 13.44v-7.04a71.36 71.36 0 0 1 10.24-42.88z m0 69.44a37.76 37.76 0 0 1 17.6-3.84 22.08 22.08 0 0 1 19.2 11.2 54.72 54.72 0 0 1 7.04 30.4 56.96 56.96 0 0 1-7.04 29.76 20.8 20.8 0 0 1-18.88 12.16 24 24 0 0 1-21.44-14.4 89.28 89.28 0 0 1-8-40.96v-14.08a27.52 27.52 0 0 1 12.16-10.24zM640 640a64 64 0 0 0 50.88-22.72 96 96 0 0 0 19.2-64V492.8a94.08 94.08 0 0 0-19.52-64 67.84 67.84 0 0 0-101.76 0 96 96 0 0 0-19.2 64v62.08a92.8 92.8 0 0 0 19.52 64A64 64 0 0 0 640 640z m-26.24-152a71.04 71.04 0 0 1 7.04-34.88 20.8 20.8 0 0 1 19.2-12.48 21.12 21.12 0 0 1 18.88 12.48 74.88 74.88 0 0 1 7.04 34.88v70.08a74.24 74.24 0 0 1-7.04 35.2 20.8 20.8 0 0 1-38.08 0 74.24 74.24 0 0 1-7.04-35.2zM779.84 491.52a36.48 36.48 0 0 0 27.2-12.16 43.84 43.84 0 0 0 11.2-30.08 44.8 44.8 0 0 0-11.2-30.08 35.84 35.84 0 0 0-27.2-12.48 35.2 35.2 0 0 0-27.2 12.48 43.84 43.84 0 0 0-11.52 30.08 42.56 42.56 0 0 0 11.52 30.08 35.84 35.84 0 0 0 27.2 12.16zM768 434.56a16 16 0 0 1 12.16-6.08 15.04 15.04 0 0 1 11.84 6.08 21.76 21.76 0 0 1 5.12 14.72 20.8 20.8 0 0 1-5.12 14.72 15.36 15.36 0 0 1-11.84 5.44 15.68 15.68 0 0 1-12.16-5.76 21.76 21.76 0 0 1-4.8-14.4 23.36 23.36 0 0 1 4.8-14.72z" p-id="11347" fill="#2c2c2c"></path></svg>